<svg id="color" enable-background="new 0 0 24 24" height="512" viewBox="0 0 24 24" width="512" xmlns="http://www.w3.org/2000/svg"><path d="m20.75 12.594-1.61 1.671c-.51.446-1.22.586-1.862.366l-1.787-.611-4.811-5.489 5.164-1.812 5.094 1.719z" fill="#ffb74d"/><path d="m15.83 11.75-.01-.01-5.37-5.37c-.76-.75-1.89-.99-2.88-.58l-4.61 1.91c-.28.11-.46.39-.46.69v6.02c0 .41.34.75.75.75h.5c1.08 0 2.11.399 2.9 1.12l2.2 1.989c.4.391.92.58 1.44.58.54 0 1.08-.199 1.49-.609.189-.19.33-.41.43-.65.06-.13.1-.26.13-.39.56.03 1.13-.181 1.56-.601.24-.239.41-.529.5-.85v-.01c.05-.141.08-.27.1-.42.48-.04.94-.261 1.33-.65.79-.799.79-2.119 0-2.919z" fill="#ffcc80"/><path d="m3.25 16h-2.5c-.414 0-.75-.336-.75-.75v-8.5c0-.414.336-.75.75-.75h2.5c.414 0 .75.336.75.75v8.5c0 .414-.336.75-.75.75z" fill="#607d8b"/><g fill="#ffb74d"><path d="m11.013 10.721c-.524 0-1.042-.205-1.431-.594-.459-.459-.671-1.116-.567-1.757s.512-1.196 1.093-1.487l3.305-1.654c.689-.344 1.491-.371 2.202-.076l2.289.936.038.016 3.093 1.265c.384.157.567.595.411.978-.157.384-.593.568-.978.411l-2.798-1.146-5.745 2.89c-.29.146-.602.218-.912.218z"/><path d="m12.34 17.2c-.03.13-.07.26-.13.39l-3.57-3.5c-.13-.08-.19-.22-.19-.35 0-.11.04-.221.13-.3z"/><path d="m14.5 15.32c-.02.149-.05.279-.1.42l-3.53-3.471c-.13-.079-.19-.21-.19-.35 0-.1.04-.21.12-.29z"/></g><path d="m23.25 16h-2.5c-.414 0-.75-.336-.75-.75v-8.5c0-.414.336-.75.75-.75h2.5c.414 0 .75.336.75.75v8.5c0 .414-.336.75-.75.75z" fill="#607d8b"/><path d="m20 11h-4.92l.74.74.01.01c.662.671.769 1.707.321 2.495l1.127.385c.201.069.408.102.614.102.452 0 .897-.162 1.248-.469l.86-.891z" fill="#de9f43"/><path d="m12.21 17.59-3.57-3.5c-.13-.08-.19-.22-.19-.35 0-.11.04-.221.13-.3l3.76 3.76c-.03.13-.07.26-.13.39zm2.19-1.85-3.53-3.471c-.13-.079-.19-.21-.19-.35 0-.1.04-.21.12-.29l3.7 3.69c-.02.151-.05.281-.1.421zm.68-4.74h-11.08v4.167c.988.057 1.921.448 2.65 1.113l2.2 1.989c.4.391.92.58 1.44.58.54 0 1.08-.199 1.49-.609.189-.19.33-.41.43-.65.06-.13.1-.26.13-.39.035.002.071.003.106.003.525 0 1.051-.21 1.454-.603.24-.239.41-.529.5-.85v-.01c.05-.141.08-.27.1-.42.48-.04.94-.261 1.33-.65.128-.129.235-.272.321-.424.448-.789.341-1.825-.321-2.495l-.01-.01z" fill="#deb26f"/><path d="m4 11h-4v4.25c0 .414.336.75.75.75h2.5c.414 0 .75-.336.75-.75v-.083z" fill="#546d79"/><path d="m8.58 13.44c-.09.079-.13.189-.13.3 0 .13.06.27.19.35l3.57 3.5c.06-.13.1-.26.13-.39z" fill="#de9f43"/><path d="m10.8 11.63c-.08.08-.12.19-.12.29 0 .14.06.271.19.35l3.53 3.471c.05-.141.08-.27.1-.42z" fill="#de9f43"/><path d="m24 11h-4v2.372 1.878c0 .414.336.75.75.75h2.5c.414 0 .75-.336.75-.75z" fill="#546d79"/></svg>