<svg id="Capa_1" enable-background="new 0 0 512 512" height="512" viewBox="0 0 512 512" width="512" xmlns="http://www.w3.org/2000/svg"><g><path d="m221 35v63h70v-63c0-19.33-15.67-35-35-35-19.33 0-35 15.67-35 35z" fill="#ffb454"/><path d="m291 35c0-19.33-15.67-35-35-35v98h35z" fill="#ff7d47"/><path d="m256 512c-46.869 0-85-38.131-85-85 0-8.284 6.716-15 15-15h140c8.284 0 15 6.716 15 15 0 46.869-38.131 85-85 85z" fill="#ffb454"/><g><g><path d="m326 412h-70v100c46.869 0 85-38.131 85-85 0-8.284-6.716-15-15-15z" fill="#ff7d47"/></g></g><g><path d="m391 276.377v-69.377c0-74.439-60.561-135-135-135s-135 60.561-135 135v69.377c0 27.351-3.922 54.513-11.517 80.623l97.678 30h97.678l97.678-30c-7.595-26.109-11.517-53.271-11.517-80.623z" fill="#fff16b"/><path d="m402.517 357c-7.595-26.109-11.517-53.271-11.517-80.623v-69.377c0-74.439-60.561-135-135-135v315h48.839z" fill="#ffb454"/><path d="m429.023 419.558c-11.305-19.784-20.179-40.806-26.507-62.558h-293.033c-6.327 21.752-15.201 42.774-26.507 62.558-2.653 4.642-2.634 10.346.05 14.971h345.947c2.685-4.625 2.703-10.329.05-14.971z" fill="#ffb454"/><g><path d="m429.023 419.558c-11.305-19.784-20.179-40.806-26.507-62.558h-146.516v77.529h172.974c2.684-4.625 2.702-10.329.049-14.971z" fill="#ff7d47"/></g></g><g fill="#e2dff4"><path d="m470.68 334.64c-3.839 0-7.677-1.464-10.606-4.394-5.858-5.858-5.858-15.355 0-21.213 14.139-14.139 21.926-32.973 21.926-53.033s-7.787-38.894-21.926-53.033c-5.858-5.858-5.858-15.355 0-21.213 5.857-5.858 15.355-5.858 21.213 0 19.806 19.805 30.713 46.173 30.713 74.246s-10.907 54.441-30.713 74.246c-2.929 2.929-6.768 4.394-10.607 4.394z"/><path d="m428.254 292.213c-3.839 0-7.678-1.464-10.606-4.394-5.858-5.858-5.858-15.355 0-21.213 2.833-2.833 4.394-6.6 4.394-10.607s-1.561-7.773-4.394-10.607c-5.858-5.858-5.858-15.355 0-21.213 5.857-5.858 15.355-5.858 21.213 0 17.546 17.545 17.546 46.094 0 63.64-2.929 2.93-6.768 4.394-10.607 4.394z"/></g><g fill="#f9f9f9"><path d="m41.32 334.64c-3.839 0-7.678-1.464-10.606-4.394-19.807-19.805-30.714-46.173-30.714-74.246s10.907-54.441 30.713-74.246c5.858-5.858 15.355-5.857 21.213 0 5.858 5.858 5.858 15.355 0 21.213-14.139 14.139-21.926 32.973-21.926 53.033s7.787 38.894 21.926 53.033c5.858 5.858 5.858 15.355 0 21.213-2.928 2.929-6.767 4.394-10.606 4.394z"/><path d="m83.746 292.213c-3.839 0-7.678-1.464-10.606-4.394-17.546-17.545-17.546-46.094 0-63.64 5.857-5.858 15.355-5.858 21.213 0s5.858 15.355 0 21.213c-2.833 2.833-4.394 6.6-4.394 10.607s1.561 7.773 4.394 10.607c5.858 5.858 5.858 15.355 0 21.213-2.929 2.93-6.768 4.394-10.607 4.394z"/></g><path d="m436 442h-360c-8.284 0-15-6.716-15-15s6.716-15 15-15h360c8.284 0 15 6.716 15 15s-6.716 15-15 15z" fill="#fff16b"/><g><g><path d="m436 412h-180v30h180c8.284 0 15-6.716 15-15s-6.716-15-15-15z" fill="#ffb454"/></g></g></g></svg>