<?xml version="1.0" encoding="iso-8859-1"?>
<!-- Generator: Adobe Illustrator 19.0.0, SVG Export Plug-In . SVG Version: 6.00 Build 0)  -->
<svg version="1.1" id="Capa_1" xmlns="http://www.w3.org/2000/svg" xmlns:xlink="http://www.w3.org/1999/xlink" x="0px" y="0px"
	 viewBox="0 0 512 512" style="enable-background:new 0 0 512 512;" xml:space="preserve">
<path style="fill:#57555C;" d="M105,210H45c-8.291,0-15-6.709-15-15v-60c0-24.814,20.186-45,45-45h30c8.291,0,15,6.709,15,15v90
	C120,203.291,113.291,210,105,210z"/>
<path style="fill:#3C3A41;" d="M482,195c0,8.291-6.709,15-15,15h-60c-8.291,0-15-6.709-15-15l-30-90c0-8.291,6.709-15,15-15h60
	c24.814,0,45,20.186,45,45V195z"/>
<path style="fill:#E5E5E5;" d="M422,120v75c0,8.399-6.599,15-15,15H105c-8.401,0-15-6.601-15-15V15c0-8.401,6.599-15,15-15h197
	l30,90L422,120z"/>
<path style="fill:#D9D9D9;" d="M407,210H256V0h46l30,90l90,30v75C422,203.399,415.401,210,407,210z"/>
<path style="fill:#1BA9EF;" d="M467,180H45c-24.901,0-45,20.099-45,45v182c0,24.899,20.099,45,45,45h422c24.901,0,45-20.101,45-45
	V225C512,200.099,491.901,180,467,180z"/>
<path style="fill:#FE9923;" d="M302,105c0,8.399,6.599,15,15,15h105L302,0V105z"/>
<path style="fill:#1689FC;" d="M512,225v182c0,24.899-20.099,45-45,45H256V180h211C491.901,180,512,200.099,512,225z"/>
<path style="fill:#E1E4FB;" d="M105,270H75c-8.291,0-15-6.709-15-15s6.709-15,15-15h30c8.291,0,15,6.709,15,15
	C120,263.291,113.291,270,105,270z"/>
<path style="fill:#E5E5E5;" d="M422,319.999V497c0,8.399-6.599,15-15,15H105c-8.401,0-15-6.601-15-15V319.999H422z"/>
<path style="fill:#D9D9D9;" d="M422,319.999V497c0,8.399-6.599,15-15,15H256V319.999H422z"/>
<g>
	<path style="fill:#AEADB3;" d="M362,377c0,8.399-6.599,15-15,15H165c-8.401,0-15-6.601-15-15c0-8.401,6.599-15,15-15h182
		C355.401,362,362,368.599,362,377z"/>
	<path style="fill:#AEADB3;" d="M362,437c0,8.399-6.599,15-15,15H165c-8.401,0-15-6.601-15-15c0-8.401,6.599-15,15-15h182
		C355.401,422,362,428.599,362,437z"/>
</g>
<g>
	<path style="fill:#8B8892;" d="M362,437c0,8.399-6.599,15-15,15h-91v-30h91C355.401,422,362,428.599,362,437z"/>
	<path style="fill:#8B8892;" d="M362,377c0,8.399-6.599,15-15,15h-91v-30h91C355.401,362,362,368.599,362,377z"/>
</g>
<path style="fill:#57555C;" d="M452,317c0,8.399-6.599,15-15,15H75c-8.401,0-15-6.601-15-15c0-8.401,6.599-15,15-15h362
	C445.401,302,452,308.599,452,317z"/>
<path style="fill:#3C3A41;" d="M452,317c0,8.399-6.599,15-15,15H256v-30h181C445.401,302,452,308.599,452,317z"/>
<g>
</g>
<g>
</g>
<g>
</g>
<g>
</g>
<g>
</g>
<g>
</g>
<g>
</g>
<g>
</g>
<g>
</g>
<g>
</g>
<g>
</g>
<g>
</g>
<g>
</g>
<g>
</g>
<g>
</g>
</svg>
