<?xml version="1.0" encoding="iso-8859-1"?>
<!-- Generator: Adobe Illustrator 19.0.0, SVG Export Plug-In . SVG Version: 6.00 Build 0)  -->
<svg version="1.1" id="Capa_1" xmlns="http://www.w3.org/2000/svg" xmlns:xlink="http://www.w3.org/1999/xlink" x="0px" y="0px"
	 viewBox="0 0 512 512" style="enable-background:new 0 0 512 512;" xml:space="preserve">
<polygon style="fill:#EBBA16;" points="105.931,70.621 105.931,123.586 105.931,282.483 105.931,441.379 406.069,441.379 
	406.069,388.414 406.069,229.517 406.069,70.621 "/>
<path style="fill:#E7ECED;" d="M377.238,512H134.762c-15.925,0-28.831-12.906-28.831-28.831v-41.79h300.138v41.79
	C406.069,499.094,393.163,512,377.238,512z"/>
<g>
	<path style="fill:#AFB6BB;" d="M282.483,485.517h-52.966c-4.873,0-8.828-3.946-8.828-8.828c0-4.882,3.955-8.828,8.828-8.828h52.966
		c4.873,0,8.828,3.946,8.828,8.828C291.31,481.571,287.356,485.517,282.483,485.517z"/>
	<path style="fill:#AFB6BB;" d="M361.931,485.517h-35.31c-4.873,0-8.828-3.946-8.828-8.828c0-4.882,3.955-8.828,8.828-8.828h35.31
		c4.873,0,8.828,3.946,8.828,8.828C370.759,481.571,366.804,485.517,361.931,485.517z"/>
	<path style="fill:#AFB6BB;" d="M185.379,485.517h-35.31c-4.873,0-8.828-3.946-8.828-8.828c0-4.882,3.955-8.828,8.828-8.828h35.31
		c4.873,0,8.828,3.946,8.828,8.828C194.207,481.571,190.252,485.517,185.379,485.517z"/>
</g>
<path style="fill:#E7ECED;" d="M134.762,0h242.485c15.916,0,28.822,12.906,28.822,28.831v41.79H105.931v-41.79
	C105.931,12.906,118.837,0,134.762,0z"/>
<path style="fill:#AFB6BB;" d="M300.138,44.138h-88.276c-4.873,0-8.828-3.946-8.828-8.828s3.955-8.828,8.828-8.828h88.276
	c4.873,0,8.828,3.946,8.828,8.828S305.011,44.138,300.138,44.138z"/>
<rect y="123.586" style="fill:#23A24D;" width="229.517" height="158.897"/>
<path style="fill:#366DB6;" d="M491.476,388.414H303.007c-11.335,0-20.524-9.19-20.524-20.524v-91.366
	c0-11.335,9.19-20.524,20.524-20.524h188.469C502.81,256,512,265.19,512,276.524v91.366C512,379.224,502.81,388.414,491.476,388.414
	z"/>
<g>
	<circle style="fill:#187F38;" cx="114.759" cy="203.034" r="35.31"/>
	<path style="fill:#187F38;" d="M0,176.552L0,176.552v-52.966h52.966l0,0C52.966,152.841,29.255,176.552,0,176.552z"/>
	<path style="fill:#187F38;" d="M229.517,176.552L229.517,176.552v-52.966h-52.966l0,0
		C176.552,152.841,200.263,176.552,229.517,176.552z"/>
	<path style="fill:#187F38;" d="M229.517,229.517L229.517,229.517v52.966h-52.966l0,0
		C176.552,253.228,200.263,229.517,229.517,229.517z"/>
	<path style="fill:#187F38;" d="M0,229.517L0,229.517v52.966h52.966l0,0C52.966,253.228,29.255,229.517,0,229.517z"/>
</g>
<path style="fill:#1F436D;" d="M512,282.483H282.483v-32.441c0-11.335,9.19-20.524,20.524-20.524h188.469
	c11.335,0,20.524,9.19,20.524,20.524V282.483z"/>
<g>
	<path style="fill:#FFFFFF;" d="M353.103,353.103h-35.31c-4.873,0-8.828-3.946-8.828-8.828c0-4.882,3.955-8.828,8.828-8.828h35.31
		c4.873,0,8.828,3.946,8.828,8.828C361.931,349.158,357.976,353.103,353.103,353.103z"/>
	<path style="fill:#FFFFFF;" d="M476.69,353.103h-35.31c-4.873,0-8.828-3.946-8.828-8.828c0-4.882,3.955-8.828,8.828-8.828h35.31
		c4.873,0,8.828,3.946,8.828,8.828C485.517,349.158,481.562,353.103,476.69,353.103z"/>
	<path style="fill:#FFFFFF;" d="M406.069,353.103h-17.655c-4.873,0-8.828-3.946-8.828-8.828c0-4.882,3.955-8.828,8.828-8.828h17.655
		c4.873,0,8.828,3.946,8.828,8.828C414.897,349.158,410.942,353.103,406.069,353.103z"/>
</g>
<g>
	<path style="fill:#366DB6;" d="M44.138,414.897c-4.873,0-8.828-3.946-8.828-8.828v-79.448c0-4.882,3.955-8.828,8.828-8.828
		s8.828,3.946,8.828,8.828v79.448C52.966,410.951,49.011,414.897,44.138,414.897z"/>
	<path style="fill:#366DB6;" d="M17.655,361.931c-2.26,0-4.52-0.865-6.241-2.586c-3.452-3.452-3.452-9.031,0-12.482l26.483-26.483
		c3.443-3.452,9.039-3.452,12.482,0c3.452,3.452,3.452,9.031,0,12.482l-26.483,26.483C22.175,361.066,19.915,361.931,17.655,361.931
		z"/>
	<path style="fill:#366DB6;" d="M70.621,361.931c-2.26,0-4.52-0.865-6.241-2.586l-26.483-26.483c-3.452-3.452-3.452-9.031,0-12.482
		c3.443-3.452,9.039-3.452,12.482,0l26.483,26.483c3.452,3.452,3.452,9.031,0,12.482C75.14,361.066,72.881,361.931,70.621,361.931z"
		/>
</g>
<g>
	<path style="fill:#DD352E;" d="M467.862,194.207c-4.873,0-8.828-3.946-8.828-8.828v-79.448c0-4.882,3.955-8.828,8.828-8.828
		s8.828,3.946,8.828,8.828v79.448C476.69,190.261,472.735,194.207,467.862,194.207z"/>
	<path style="fill:#DD352E;" d="M467.862,194.207c-2.26,0-4.52-0.865-6.241-2.586c-3.452-3.452-3.452-9.031,0-12.482l26.483-26.483
		c3.443-3.452,9.039-3.452,12.482,0c3.452,3.452,3.452,9.031,0,12.482l-26.483,26.483
		C472.382,193.342,470.122,194.207,467.862,194.207z"/>
	<path style="fill:#DD352E;" d="M467.862,194.207c-2.26,0-4.52-0.865-6.241-2.586l-26.483-26.483c-3.452-3.452-3.452-9.031,0-12.482
		c3.443-3.452,9.039-3.452,12.482,0l26.483,26.483c3.452,3.452,3.452,9.031,0,12.482
		C472.382,193.342,470.122,194.207,467.862,194.207z"/>
</g>
<g>
</g>
<g>
</g>
<g>
</g>
<g>
</g>
<g>
</g>
<g>
</g>
<g>
</g>
<g>
</g>
<g>
</g>
<g>
</g>
<g>
</g>
<g>
</g>
<g>
</g>
<g>
</g>
<g>
</g>
</svg>
