<?xml version="1.0" encoding="iso-8859-1"?>
<!-- Generator: Adobe Illustrator 19.0.0, SVG Export Plug-In . SVG Version: 6.00 Build 0)  -->
<svg version="1.1" id="Capa_1" xmlns="http://www.w3.org/2000/svg" xmlns:xlink="http://www.w3.org/1999/xlink" x="0px" y="0px"
	 viewBox="0 0 512 512" style="enable-background:new 0 0 512 512;" xml:space="preserve">
<path style="fill:#57606E;" d="M256,159c-3.839,0-7.678-1.465-10.606-4.394l-73.322-73.322c-5.858-5.857-5.858-15.355,0-21.213
	c5.857-5.857,15.355-5.857,21.213,0L256,122.787l62.716-62.716c5.857-5.857,15.355-5.857,21.213,0s5.858,15.355,0,21.213
	l-73.322,73.322C263.678,157.535,259.839,159,256,159z"/>
<path style="fill:#2F3542;" d="M339.929,60.071c-5.857-5.857-15.355-5.857-21.213,0L256,122.787V159
	c3.839,0,7.678-1.465,10.606-4.394l73.322-73.322C345.787,75.427,345.787,65.929,339.929,60.071z"/>
<path style="fill:#A4B0BE;" d="M165,13c-22.056,0-40,17.944-40,40s17.944,40,40,40s40-17.944,40-40S187.056,13,165,13z"/>
<path style="fill:#FD7F56;" d="M497,129H15c-8.284,0-15,6.716-15,15v340c0,8.284,6.716,15,15,15h482c8.284,0,15-6.716,15-15V144
	C512,135.716,505.284,129,497,129z"/>
<path style="fill:#FC644D;" d="M497,129H256v370h241c8.284,0,15-6.716,15-15V144C512,135.716,505.284,129,497,129z"/>
<path style="fill:#FAD557;" d="M351.188,189.134C349.109,183.071,343.409,179,337,179H85c-6.409,0-12.109,4.071-14.188,10.134
	c-26.583,77.505-27.518,169.5,0,249.732C72.891,444.929,78.591,449,85,449h252c6.409,0,12.109-4.071,14.188-10.134
	C377.771,361.36,378.707,269.366,351.188,189.134z"/>
<path style="fill:#FCB12B;" d="M351.188,189.134C349.109,183.071,343.409,179,337,179h-81v270h81
	c6.409,0,12.109-4.071,14.188-10.134C377.771,361.36,378.707,269.366,351.188,189.134z"/>
<path style="fill:#394BF6;" d="M443,204c-24.813,0-45,20.187-45,45s20.187,45,45,45s45-20.187,45-45S467.813,204,443,204z"/>
<g>
	<path style="fill:#D8372B;" d="M463,344h-40c-8.284,0-15-6.716-15-15s6.716-15,15-15h40c8.284,0,15,6.716,15,15
		S471.284,344,463,344z"/>
	<path style="fill:#D8372B;" d="M473,384h-60c-8.284,0-15-6.716-15-15s6.716-15,15-15h60c8.284,0,15,6.716,15,15
		S481.284,384,473,384z"/>
	<path style="fill:#D8372B;" d="M463,424h-40c-8.284,0-15-6.716-15-15s6.716-15,15-15h40c8.284,0,15,6.716,15,15
		S471.284,424,463,424z"/>
</g>
<path style="fill:#747D8B;" d="M347,13c-22.056,0-40,17.944-40,40c0,10.688,4.16,20.734,11.712,28.286
	C326.266,88.84,336.312,93,347,93c22.056,0,40-17.944,40-40S369.056,13,347,13z"/>
<g>
</g>
<g>
</g>
<g>
</g>
<g>
</g>
<g>
</g>
<g>
</g>
<g>
</g>
<g>
</g>
<g>
</g>
<g>
</g>
<g>
</g>
<g>
</g>
<g>
</g>
<g>
</g>
<g>
</g>
</svg>
