<svg id="Capa_1" enable-background="new 0 0 512 512" height="512" viewBox="0 0 512 512" width="512" xmlns="http://www.w3.org/2000/svg"><g><circle cx="256" cy="256" fill="#e27266" r="256"/><path d="m507.025 306.415c-28.539-28.543-194.846-194.844-194.846-194.844l-111.268 170.386s15.474 15.483 15.714 15.721v6.884l-98.438 119.438 81.847 81.847c18.015 4.018 36.74 6.153 55.966 6.153 124.126 0 227.608-88.346 251.025-205.585z" fill="#c7475a"/><g><g id="patients_5_"><path d="m295.375 272.275v51.975l-39.375 39.375-39.375-39.375v-51.975l14.174 6.89c15.554 7.481 34.847 7.481 50.401 0z" fill="#efbeaa"/></g><path d="m295.375 324.25v-51.975l-14.174 6.89c-7.777 3.741-16.489 5.611-25.201 5.611v78.85z" fill="#e19480"/><g><path d="m285.531 127.375c-13.387 0-25.594 5.119-34.65 14.372-11.615 11.419-30.121 25.003-53.747 25.003l-19.884 19.688v39.375c0 30.318 17.719 58.078 44.888 71.072 10.434 5.119 21.853 7.678 33.862 7.678s23.428-2.56 33.666-7.678c27.365-12.993 45.084-40.753 45.084-71.072v-29.531c0-27.17-22.05-68.907-49.219-68.907z" fill="#f7e0ba"/></g><path d="m285.531 127.375c-11.057 0-21.194 3.663-29.531 10.091v167.096c12.009 0 23.428-2.56 33.666-7.678 27.365-12.993 45.084-40.753 45.084-71.072v-29.531c0-27.169-22.05-68.906-49.219-68.906z" fill="#efbeaa"/><g><path d="m216.625 206.125h19.687v19.688h-19.687z" fill="#54747f"/></g><g><path d="m275.688 206.125h19.688v19.688h-19.688z" fill="#455e72"/></g><g><path d="m393.812 393.156v30.844h-137.812v-80.062l39.375-39.375h9.844c48.824-.001 88.593 39.767 88.593 88.593z" fill="#7ccbbf"/><path d="m256 343.938v80.062h-137.813v-30.844c0-48.826 39.769-88.594 88.594-88.594h9.844z" fill="#94e5cf"/></g><path d="m334.75 166.75v29.531c0-27.169-22.05-49.219-49.219-49.219-11.005 0-21.217 3.458-29.531 9.837-1.798 1.378-3.511 2.887-5.119 4.535-11.616 11.419-30.122 25.003-53.747 25.003h-19.884v-19.687c0-43.509 35.241-78.75 78.75-78.75s78.75 35.241 78.75 78.75z" fill="#54747f"/><g><path d="m334.75 166.75v29.531c0-27.169-22.05-49.219-49.219-49.219-11.005 0-21.217 3.458-29.531 9.837v-68.899c43.509 0 78.75 35.241 78.75 78.75z" fill="#455e72"/></g></g></g></svg>