<svg id="Layer_3" enable-background="new 0 0 64 64" height="512" viewBox="0 0 64 64" width="512" xmlns="http://www.w3.org/2000/svg"><g><path d="m58 20h-55.943-.057c0-2.209 1.791-4 4-4h50c1.105 0 2 .895 2 2z" fill="#d8923e"/><path d="m58 20v4h-52c-2.209 0-4-1.791-4-4z" fill="#bc7f35"/><path d="m13 4h6v20h-6z" fill="#669e4f"/><path d="m45 6h6v18h-6z" fill="#96cc7f"/><path d="m19 24v-22h26v22" fill="#78b75b"/><path d="m24 24c0-4.418 3.582-8 8-8s8 3.582 8 8" fill="#96cc7f"/><path d="m33 19h-.002v-1h-1.999v1c-1.654 0-3 1.346-3 3s1.346 2.999 3 2.999h2.001v-2h-.002v-2h.002c.551 0 .998.448.998 1h2c0-1.654-1.345-2.999-2.998-2.999zm-2.001 3.999c-.552 0-1-.448-1-1s.448-1 1-1z" fill="#669e4f"/><path d="m60 26v34c0 1.105-.895 2-2 2h-54c-1.105 0-2-.895-2-2v-40c0 2.209 1.791 4 4 4h52c1.105 0 2 .895 2 2z" fill="#f5cf88"/><path d="m2 40h41v6h-41z" fill="#8f6128"/><path d="m2 40h41v3h-41z" fill="#bc7f35"/><g><path d="m42 14.999h-2v-7.999h-5.001v-2h6.001c.552 0 1 .447 1 1z" fill="#96cc7f"/></g><g><path d="m23.999 14.999h-2v-8.999c0-.553.447-1 1-1h5.999v2h-4.999z" fill="#96cc7f"/></g><g><path d="m1.999 35h3.999v2h-3.999z" fill="#8f6128"/></g><g><path d="m9 35h3.999v2h-3.999z" fill="#8f6128"/></g><g><path d="m17 35h3.999v2h-3.999z" fill="#8f6128"/></g><g><path d="m25 35h3.999v2h-3.999z" fill="#8f6128"/></g><g><path d="m33 35h3.999v2h-3.999z" fill="#8f6128"/></g><g><path d="m40 35h4.702v2h-4.702z" fill="#8f6128"/></g><g><path d="m37.998 13.999h-2v-3h-7.999v3h-2v-4c0-.553.447-1 1-1h9.999c.553 0 1 .447 1 1z" fill="#96cc7f"/></g><path d="m60 56.42c-1.267.377-2.61.58-4 .58-7.732 0-14-6.268-14-14s6.268-14 14-14c1.39 0 2.733.203 4 .58" fill="#d8923e"/><path d="m60 48h-7c-2.761 0-5-2.239-5-5 0-2.761 2.239-5 5-5h7c1.105 0 2 .895 2 2v6c0 1.105-.895 2-2 2z" fill="#8f6128"/><g><path d="m52.999 44.999c-1.104 0-2-.897-2-2s.896-2 2-2c1.103 0 1.999.897 1.999 2s-.896 2-1.999 2z" fill="#f5cf88"/></g></g></svg>